<svg width="23" height="27" viewBox="0 0 23 27" fill="none" xmlns="http://www.w3.org/2000/svg">
<path d="M11.2651 12C12.5383 12 13.7828 11.6481 14.8414 10.9888C15.9 10.3295 16.7251 9.39246 17.2123 8.2961C17.6995 7.19975 17.827 5.99335 17.5786 4.82946C17.3303 3.66557 16.7172 2.59648 15.8169 1.75736C14.9167 0.918246 13.7697 0.346802 12.521 0.115291C11.2723 -0.11622 9.97795 0.00259969 8.8017 0.456725C7.62546 0.910851 6.6201 1.67989 5.91277 2.66658C5.20544 3.65328 4.82791 4.81331 4.82791 6C4.82791 7.5913 5.50611 9.11742 6.71332 10.2426C7.92053 11.3679 9.55786 12 11.2651 12Z" fill="#231F20"/>
<path d="M20.9209 27C21.3477 27 21.7571 26.842 22.0589 26.5606C22.3607 26.2793 22.5302 25.8978 22.5302 25.5C22.5302 22.7152 21.3434 20.0445 19.2308 18.0754C17.1181 16.1062 14.2528 15 11.2651 15C8.27742 15 5.4121 16.1062 3.29948 18.0754C1.18686 20.0445 4.45201e-08 22.7152 0 25.5C0 25.8978 0.169551 26.2793 0.471354 26.5606C0.773157 26.842 1.18249 27 1.6093 27H20.9209Z" fill="#231F20"/>
</svg>
