<svg width="34" height="29" viewBox="0 0 34 29" fill="none" xmlns="http://www.w3.org/2000/svg">
<path d="M33.4998 6.25794C33.1964 5.78963 32.762 5.39937 32.2389 5.12522C31.7158 4.85107 31.1218 4.70239 30.515 4.69368H8.04136L7.02302 1.15847C6.92013 0.817205 6.69059 0.517034 6.37177 0.306842C6.05295 0.0966494 5.66365 -0.0111793 5.26727 0.000917405H1.75576C1.2901 0.000917405 0.843517 0.165722 0.514249 0.459077C0.184981 0.752432 0 1.15031 0 1.56517C0 1.98004 0.184981 2.37791 0.514249 2.67127C0.843517 2.96462 1.2901 3.12943 1.75576 3.12943H3.93289L8.77878 19.1787C8.88166 19.5199 9.11121 19.8201 9.43003 20.0303C9.74884 20.2405 10.1381 20.3483 10.5345 20.3362H26.3363C26.6606 20.3354 26.9782 20.2545 27.254 20.1027C27.5298 19.9508 27.753 19.7339 27.8989 19.4759L33.6578 9.21438C33.9074 8.74826 34.0236 8.23433 33.9961 7.71846C33.9685 7.20259 33.798 6.70082 33.4998 6.25794ZM25.2478 17.2077H11.8689L9.00702 7.82219H30.515L25.2478 17.2077Z" fill="#231F20"/>
<path d="M9.65665 28.1575C11.1112 28.1575 12.2903 27.107 12.2903 25.8111C12.2903 24.5152 11.1112 23.4647 9.65665 23.4647C8.20214 23.4647 7.02302 24.5152 7.02302 25.8111C7.02302 27.107 8.20214 28.1575 9.65665 28.1575Z" fill="#231F20"/>
<path d="M27.2142 28.1575C28.6687 28.1575 29.8478 27.107 29.8478 25.8111C29.8478 24.5152 28.6687 23.4647 27.2142 23.4647C25.7597 23.4647 24.5806 24.5152 24.5806 25.8111C24.5806 27.107 25.7597 28.1575 27.2142 28.1575Z" fill="#231F20"/>
</svg>
