<svg width="17" height="29" viewBox="0 0 17 29" fill="none" xmlns="http://www.w3.org/2000/svg">
<path d="M6.82036 0V3.57647H4.27545C1.96806 3.57647 0.0339321 5.61506 0.0339321 8.04706V9.8353C0.0339321 12.2673 1.52695 14.2701 3.73253 14.8781L12.4192 17.2386C12.8942 17.3816 13.5729 18.2758 13.5729 18.8122V20.6005C13.5729 21.1012 13.1996 21.4946 12.7245 21.4946H4.24152C3.83433 21.4946 3.52894 21.3515 3.39321 21.28V17.9181H0V21.4946C0 22.7106 0.678643 23.7478 1.49301 24.2842C2.27345 24.8565 3.25748 25.0711 4.24152 25.0711H6.78643V28.6475H10.1796V25.0711H12.7245C15.0659 25.0711 16.9661 23.0682 16.9661 20.6005V18.8122C16.9661 16.3802 15.4731 14.3774 13.2675 13.7694L4.58084 11.4089C4.10579 11.2659 3.42715 10.3718 3.42715 9.8353V8.04706C3.42715 7.54635 3.8004 7.15294 4.27545 7.15294H12.7585C13.1317 7.15294 13.4711 7.296 13.6068 7.36753V10.7294H17V7.15294C17 5.93694 16.3214 4.89977 15.507 4.36329C14.7265 3.79106 13.7425 3.57647 12.7585 3.57647H10.2136V0L6.82036 0Z" fill="white"/>
</svg>
