<svg width="29" height="32" viewBox="0 0 29 32" fill="none" xmlns="http://www.w3.org/2000/svg">
<path d="M15.8376 32H13.1015C12.4565 32 11.8379 31.7168 11.3818 31.2127C10.9256 30.7086 10.6694 30.0249 10.6694 29.312V27.568C10.6616 27.4652 10.6275 27.3671 10.5711 27.2849C10.5147 27.2028 10.4383 27.14 10.3509 27.104C10.2623 27.0413 10.1593 27.0079 10.0541 27.0079C9.94894 27.0079 9.84595 27.0413 9.75737 27.104L8.68609 28.384C8.46137 28.6341 8.19411 28.8326 7.89968 28.968C7.60526 29.1035 7.2895 29.1732 6.97058 29.1732C6.65167 29.1732 6.33591 29.1035 6.04149 28.968C5.74706 28.8326 5.4798 28.6341 5.25508 28.384L3.27176 26.24C3.04218 25.9921 2.85986 25.6959 2.73554 25.3689C2.61122 25.0419 2.54742 24.6907 2.54792 24.336C2.54885 23.6104 2.809 22.9146 3.27176 22.4L4.34304 21.216C4.39476 21.1279 4.42229 21.025 4.42229 20.92C4.42229 20.8149 4.39476 20.7121 4.34304 20.624C4.25618 20.384 4.11141 20.208 3.90874 20.208H2.4321C1.78574 20.2038 1.16716 19.917 0.711461 19.4104C0.255765 18.9037 -1.13154e-05 18.2184 3.75448e-10 17.504V14.48C3.75448e-10 13.7671 0.256239 13.0834 0.712347 12.5793C1.16845 12.0752 1.78707 11.792 2.4321 11.792H4.01008C4.10305 11.7833 4.19187 11.7456 4.2662 11.6833C4.34053 11.621 4.39731 11.5366 4.4299 11.44C4.48666 11.3421 4.51682 11.2283 4.51682 11.112C4.51682 10.9957 4.48666 10.8819 4.4299 10.784L3.27176 9.6C3.04546 9.35164 2.86587 9.05625 2.74331 8.73085C2.62075 8.40545 2.55765 8.05647 2.55765 7.704C2.55765 7.35153 2.62075 7.00254 2.74331 6.67714C2.86587 6.35174 3.04546 6.05636 3.27176 5.808L5.21165 3.616C5.43372 3.36347 5.69926 3.1626 5.99264 3.02521C6.28601 2.88782 6.60129 2.81669 6.91992 2.816C7.24745 2.81441 7.57204 2.88426 7.87511 3.02153C8.17818 3.15881 8.45377 3.36082 8.68609 3.616L9.75737 4.8C9.83712 4.85716 9.93014 4.88758 10.0252 4.88758C10.1202 4.88758 10.2133 4.85716 10.293 4.8C10.5102 4.704 10.6694 4.544 10.6694 4.32V2.688C10.6732 1.97363 10.9327 1.28996 11.3911 0.786318C11.8495 0.282675 12.4696 -1.25059e-05 13.116 4.14951e-10H15.9245C16.5695 4.1495e-10 17.1881 0.283199 17.6443 0.787297C18.1004 1.29139 18.3566 1.9751 18.3566 2.688V4.432C18.3644 4.53475 18.3985 4.63292 18.4549 4.71507C18.5113 4.79722 18.5877 4.85997 18.6751 4.896C18.7637 4.95872 18.8667 4.99206 18.9719 4.99206C19.0771 4.99206 19.1801 4.95872 19.2686 4.896L20.2675 3.616C20.4922 3.36589 20.7595 3.1674 21.0539 3.03194C21.3484 2.89649 21.6641 2.82675 21.983 2.82675C22.302 2.82675 22.6177 2.89649 22.9121 3.03194C23.2066 3.1674 23.4738 3.36589 23.6985 3.616L25.6819 5.76C25.9108 6.00841 26.0927 6.30469 26.217 6.63158C26.3412 6.95847 26.4054 7.30943 26.4057 7.664C26.4127 8.02447 26.352 8.38262 26.2274 8.71585C26.1028 9.04907 25.917 9.35013 25.6819 9.6L24.6106 10.784C24.5589 10.8721 24.5313 10.9749 24.5313 11.08C24.5313 11.185 24.5589 11.2879 24.6106 11.376C24.6974 11.616 24.8422 11.792 25.0449 11.792H26.6229C27.2514 11.8249 27.8444 12.1243 28.2785 12.6278C28.7125 13.1314 28.9543 13.8005 28.9536 14.496V17.6C28.9536 18.3129 28.6974 18.9966 28.2413 19.5007C27.7852 20.0048 27.1666 20.288 26.5215 20.288H24.9435C24.8506 20.2967 24.7618 20.3343 24.6874 20.3967C24.6131 20.459 24.5563 20.5434 24.5237 20.64C24.472 20.7281 24.4445 20.8309 24.4445 20.936C24.4445 21.041 24.472 21.1439 24.5237 21.232L25.6384 22.464C25.8647 22.7124 26.0443 23.0077 26.1669 23.3331C26.2894 23.6585 26.3525 24.0075 26.3525 24.36C26.3525 24.7125 26.2894 25.0614 26.1669 25.3868C26.0443 25.7122 25.8647 26.0076 25.6384 26.256L23.742 28.384C23.5199 28.6365 23.2544 28.8374 22.961 28.9748C22.6676 29.1122 22.3523 29.1833 22.0337 29.184C21.3873 29.1746 20.7695 28.8877 20.311 28.384L19.1963 27.2C19.1165 27.1428 19.0235 27.1124 18.9284 27.1124C18.8334 27.1124 18.7404 27.1428 18.6606 27.2C18.4435 27.296 18.2842 27.456 18.2842 27.68V29.424C18.2544 30.1187 17.9836 30.7741 17.5279 31.2538C17.0723 31.7335 16.4669 32.0008 15.8376 32ZM13.5648 28.8H15.3889V27.568C15.395 26.8302 15.5992 26.1109 15.9754 25.5014C16.3517 24.8919 16.8831 24.4195 17.5025 24.144C18.1243 23.8436 18.8131 23.7546 19.4809 23.8886C20.1487 24.0225 20.7652 24.3732 21.252 24.896L22.0337 25.76L23.3077 24.352L22.5259 23.472C22.0559 22.9422 21.7389 22.27 21.6152 21.5407C21.4915 20.8114 21.5666 20.058 21.831 19.376C22.0825 18.6945 22.5109 18.1105 23.0623 17.6976C23.6136 17.2848 24.2631 17.0615 24.9291 17.056H26.0583V14.992H24.9435C24.276 14.9852 23.6252 14.7596 23.0737 14.3437C22.5222 13.9279 22.0948 13.3405 21.8455 12.656C21.5737 11.9687 21.4932 11.2075 21.6144 10.4694C21.7356 9.73136 22.0529 9.04992 22.5259 8.512L23.3077 7.648L22.0337 6.24L21.2375 7.104C20.7507 7.59546 20.1469 7.92295 19.4974 8.04792C18.8478 8.17289 18.1794 8.09012 17.571 7.80937C16.9625 7.52862 16.4393 7.06157 16.063 6.46322C15.6867 5.86488 15.4729 5.16014 15.4468 4.432V3.2H13.5648V4.432C13.5586 5.16983 13.3545 5.88905 12.9782 6.49858C12.602 7.1081 12.0705 7.58052 11.4512 7.856C10.8293 8.15643 10.1405 8.24535 9.47274 8.11142C8.80495 7.97749 8.18838 7.62677 7.70166 7.104L6.91992 6.24L5.64596 7.648L6.4277 8.528C6.87238 9.06604 7.1687 9.7333 7.28177 10.4512C7.39484 11.1691 7.31995 11.9078 7.06593 12.5803C6.8119 13.2527 6.38932 13.831 5.84793 14.2469C5.30654 14.6628 4.6689 14.8991 4.01008 14.928H2.89536V16.944H4.01008C4.67767 16.9508 5.32842 17.1764 5.87992 17.5923C6.43142 18.0081 6.85886 18.5955 7.10811 19.28C7.37995 19.9673 7.4604 20.7285 7.33922 21.4666C7.21804 22.2046 6.90071 22.8861 6.4277 23.424L5.64596 24.288L6.91992 25.696L7.71614 24.832C8.20296 24.3405 8.8067 24.013 9.45627 23.8881C10.1058 23.7631 10.7742 23.8459 11.3826 24.1266C11.9911 24.4074 12.5143 24.8744 12.8906 25.4728C13.2669 26.0711 13.4808 26.7759 13.5069 27.504L13.5648 28.8Z" fill="#231F20"/>
<path d="M14.4775 21.6001C13.4753 21.6001 12.4957 21.2717 11.6624 20.6564C10.8292 20.041 10.1798 19.1664 9.79627 18.1432C9.41277 17.1199 9.31243 15.9939 9.50793 14.9076C9.70344 13.8214 10.186 12.8235 10.8946 12.0404C11.6032 11.2572 12.5061 10.7238 13.489 10.5078C14.4718 10.2917 15.4906 10.4026 16.4165 10.8264C17.3423 11.2503 18.1337 11.968 18.6904 12.889C19.2472 13.8099 19.5443 14.8926 19.5443 16.0001C19.5443 17.4854 19.0105 18.9097 18.0603 19.9599C17.1101 21.0101 15.8213 21.6001 14.4775 21.6001ZM14.4775 13.6002C14.048 13.6002 13.6281 13.7409 13.271 14.0046C12.9139 14.2683 12.6356 14.6432 12.4712 15.0817C12.3069 15.5203 12.2639 16.0028 12.3477 16.4684C12.4315 16.9339 12.6383 17.3616 12.942 17.6972C13.2457 18.0329 13.6326 18.2614 14.0538 18.354C14.475 18.4466 14.9117 18.3991 15.3085 18.2175C15.7053 18.0358 16.0444 17.7282 16.283 17.3335C16.5216 16.9388 16.649 16.4748 16.649 16.0001C16.649 15.3636 16.4202 14.7532 16.013 14.3031C15.6057 13.853 15.0534 13.6002 14.4775 13.6002Z" fill="#231F20"/>
</svg>
