<svg width="17" height="19" viewBox="0 0 17 19" fill="none" xmlns="http://www.w3.org/2000/svg">
<path d="M16.7207 16.7782L13.5106 13.2866C14.5463 11.8472 15.1083 10.0696 15.1062 8.23975C15.1062 6.61008 14.6632 5.01701 13.8333 3.66199C13.0033 2.30697 11.8237 1.25086 10.4435 0.627217C9.0634 0.00357012 7.54472 -0.159604 6.07956 0.158328C4.61441 0.47626 3.26857 1.26102 2.21225 2.41337C1.15593 3.56572 0.436572 5.0339 0.145134 6.63225C-0.146304 8.23061 0.00327261 9.88734 0.574949 11.393C1.14662 12.8986 2.11472 14.1854 3.35682 15.0908C4.59892 15.9962 6.05924 16.4795 7.5531 16.4795C9.23051 16.4818 10.8599 15.8687 12.1794 14.7388L15.38 18.2407C15.4678 18.3373 15.5722 18.4139 15.6872 18.4662C15.8023 18.5185 15.9257 18.5454 16.0503 18.5454C16.175 18.5454 16.2984 18.5185 16.4134 18.4662C16.5285 18.4139 16.6329 18.3373 16.7207 18.2407C16.8092 18.145 16.8794 18.0311 16.9273 17.9056C16.9753 17.78 16.9999 17.6454 16.9999 17.5095C16.9999 17.3735 16.9753 17.2389 16.9273 17.1134C16.8794 16.9878 16.8092 16.8739 16.7207 16.7782ZM1.88828 8.23975C1.88828 7.0175 2.22051 5.82269 2.84297 4.80643C3.46543 3.79017 4.35016 2.99808 5.38527 2.53035C6.42038 2.06261 7.55938 1.94023 8.65825 2.17868C9.75712 2.41713 10.7665 3.0057 11.5587 3.86996C12.351 4.73422 12.8905 5.83536 13.1091 7.03413C13.3277 8.23289 13.2155 9.47544 12.7867 10.6047C12.358 11.7339 11.6319 12.699 10.7003 13.3781C9.76873 14.0571 8.6735 14.4196 7.5531 14.4196C6.0507 14.4196 4.60983 13.7685 3.54747 12.6095C2.48511 11.4506 1.88828 9.87873 1.88828 8.23975Z" fill="#8E8888"/>
</svg>
